<?xml version="1.0" standalone="no"?>
<!DOCTYPE svg PUBLIC "-//W3C//DTD SVG 20010904//EN"
 "http://www.w3.org/TR/2001/REC-SVG-20010904/DTD/svg10.dtd">
<svg version="1.0" xmlns="http://www.w3.org/2000/svg"
 width="216.000000pt" height="92.000000pt" viewBox="0 0 216.000000 92.000000"
 preserveAspectRatio="xMidYMid meet">

<g transform="translate(0.000000,92.000000) scale(0.100000,-0.100000)"
fill="#000000" stroke="none">
<path d="M530 686 c0 -68 -3 -131 -6 -140 -4 -10 -18 -16 -40 -16 -36 0 -48
-23 -18 -34 33 -13 63 -5 83 20 19 24 21 40 21 160 0 127 -1 134 -20 134 -19
0 -20 -7 -20 -124z"/>
<path d="M730 803 c0 -5 24 -75 53 -158 48 -136 55 -150 78 -153 24 -3 28 4
77 147 29 83 52 156 52 162 0 6 -8 9 -17 7 -13 -2 -31 -40 -64 -138 l-46 -134
-18 54 c-56 172 -77 220 -96 220 -10 0 -19 -3 -19 -7z"/>
<path d="M1213 795 c-50 -22 -73 -68 -73 -148 0 -111 51 -165 146 -154 86 9
127 62 127 162 0 38 -6 72 -17 93 -29 56 -113 78 -183 47z m127 -43 c18 -14
24 -32 28 -75 8 -102 -19 -147 -87 -147 -22 0 -47 3 -56 6 -26 10 -45 59 -45
118 0 44 5 60 26 85 21 26 33 31 69 31 27 0 51 -7 65 -18z"/>
<path d="M1630 803 c-33 -12 -50 -37 -50 -73 0 -42 17 -61 88 -100 52 -28 64
-57 36 -85 -18 -17 -78 -18 -116 -1 -14 6 -18 3 -18 -13 0 -50 126 -54 167 -6
33 38 30 80 -8 116 -17 16 -37 29 -44 29 -7 0 -24 9 -39 21 -59 47 -11 109 59
76 34 -16 35 -16 35 3 0 31 -64 50 -110 33z"/>
<path d="M340 290 c-7 -13 -7 -20 -1 -20 6 0 15 9 21 20 7 13 7 20 1 20 -6 0
-15 -9 -21 -20z"/>
<path d="M142 232 c-2 -55 -5 -64 -24 -71 -21 -8 -21 -10 -5 -16 30 -12 38 8
34 81 l-3 69 -2 -63z"/>
<path d="M479 215 c14 -41 31 -75 36 -75 6 0 22 34 37 76 16 43 23 74 16 72
-6 -2 -20 -28 -30 -58 -10 -29 -20 -55 -22 -57 -2 -2 -13 22 -23 53 -11 32
-24 59 -30 61 -5 2 2 -30 16 -72z"/>
<path d="M600 280 c0 -5 5 -10 10 -10 6 0 10 5 10 10 0 6 -4 10 -10 10 -5 0
-10 -4 -10 -10z"/>
<path d="M1200 215 c0 -43 4 -75 10 -75 6 0 10 14 10 30 0 23 5 30 19 30 23 0
51 25 51 45 0 23 -30 45 -61 45 l-29 0 0 -75z m65 30 c0 -13 -8 -21 -22 -23
-19 -3 -23 1 -23 23 0 22 4 26 23 23 14 -2 22 -10 22 -23z"/>
<path d="M1520 280 c0 -5 5 -10 10 -10 6 0 10 5 10 10 0 6 -4 10 -10 10 -5 0
-10 -4 -10 -10z"/>
<path d="M750 265 c0 -8 -5 -15 -12 -15 -9 0 -9 -3 0 -12 7 -7 12 -24 12 -39
0 -15 3 -34 6 -43 7 -17 44 -22 44 -6 0 6 -7 10 -15 10 -22 0 -20 59 3 76 16
13 16 13 0 14 -10 0 -18 7 -18 15 0 8 -4 15 -10 15 -5 0 -10 -7 -10 -15z"/>
<path d="M1690 265 c0 -8 -5 -15 -12 -15 -9 0 -9 -3 0 -12 7 -7 12 -24 12 -39
0 -15 3 -34 6 -43 7 -17 44 -22 44 -6 0 6 -7 10 -15 10 -22 0 -20 59 3 76 16
13 16 13 0 14 -10 0 -18 7 -18 15 0 8 -4 15 -10 15 -5 0 -10 -7 -10 -15z"/>
<path d="M196 234 c-34 -34 -9 -94 39 -94 37 0 39 18 3 22 -46 4 -49 28 -4 28
28 0 36 4 36 18 0 39 -45 55 -74 26z m52 -17 c3 -12 -4 -17 -22 -17 -28 0 -33
9 -14 28 15 15 32 10 36 -11z"/>
<path d="M304 200 l1 -55 38 0 37 -1 -2 56 -1 55 -6 -45 c-5 -37 -10 -46 -28
-48 -23 -3 -25 2 -37 68 -2 14 -3 0 -2 -30z"/>
<path d="M603 195 c0 -33 2 -45 4 -27 2 18 2 45 0 60 -2 15 -4 0 -4 -33z"/>
<path d="M656 234 c-31 -31 -12 -94 29 -94 34 0 41 18 8 22 -24 3 -28 8 -28
33 0 25 4 30 28 33 15 2 25 8 22 13 -9 14 -42 11 -59 -7z"/>
<path d="M836 234 c-32 -32 -10 -94 34 -94 24 0 50 26 50 51 0 53 -49 78 -84
43z m59 -39 c0 -25 -4 -30 -25 -30 -16 0 -26 6 -28 18 -6 30 6 49 30 45 18 -2
23 -9 23 -33z"/>
<path d="M951 190 c1 -30 3 -44 6 -30 9 56 14 70 28 70 8 0 15 4 15 9 0 5 -11
8 -25 7 -24 -1 -25 -4 -24 -56z"/>
<path d="M1321 190 c1 -30 3 -44 6 -30 9 56 14 70 28 70 8 0 15 4 15 9 0 5
-11 8 -25 7 -24 -1 -25 -4 -24 -56z"/>
<path d="M1406 234 c-32 -32 -10 -94 34 -94 24 0 50 26 50 51 0 53 -49 78 -84
43z m59 -39 c0 -25 -4 -30 -25 -30 -16 0 -26 6 -28 18 -6 30 6 49 30 45 18 -2
23 -9 23 -33z"/>
<path d="M1520 185 c0 -37 -4 -65 -10 -65 -5 0 -10 -4 -10 -10 0 -16 27 -11
34 6 10 26 7 134 -4 134 -6 0 -10 -28 -10 -65z"/>
<path d="M1586 234 c-34 -34 -9 -94 39 -94 37 0 39 18 3 22 -46 4 -49 28 -4
28 28 0 36 4 36 18 0 39 -45 55 -74 26z m52 -17 c3 -12 -4 -17 -22 -17 -28 0
-33 9 -14 28 15 15 32 10 36 -11z"/>
<path d="M1776 234 c-32 -32 -10 -94 34 -94 24 0 50 26 50 51 0 53 -49 78 -84
43z m59 -39 c0 -25 -4 -30 -25 -30 -16 0 -26 6 -28 18 -6 30 6 49 30 45 18 -2
23 -9 23 -33z"/>
<path d="M1889 234 c-12 -14 -10 -19 14 -38 34 -27 35 -40 2 -33 -16 3 -24 0
-22 -7 5 -16 36 -20 52 -6 23 19 18 39 -11 50 -27 11 -28 36 0 34 9 -1 16 2
16 7 0 15 -37 10 -51 -7z"/>
<path d="M1070 200 c0 -5 11 -10 25 -10 14 0 25 5 25 10 0 6 -11 10 -25 10
-14 0 -25 -4 -25 -10z"/>
</g>
</svg>
